<?xml version="1.0" encoding="utf-8"?>
<!-- Generator: Adobe Illustrator 19.0.0, SVG Export Plug-In . SVG Version: 6.00 Build 0)  -->
<svg version="1.1" id="Layer_1" xmlns="http://www.w3.org/2000/svg" xmlns:xlink="http://www.w3.org/1999/xlink" x="0px" y="0px"
	 viewBox="1392 355 144 126" style="enable-background:new 1392 355 144 126;" xml:space="preserve">
<g>
	<path id="rect_810_432" d="M1464,373v-18h18v18H1464z"/>
	<path id="rect_828_432" d="M1482,373v-18h18v18H1482z"/>
	<path id="rect_846_432" d="M1500,373v-18h18v18H1500z"/>
	<path id="rect_864_432" d="M1518,373v-18h18v18H1518z"/>
	<path id="rect_864_450" d="M1518,391v-18h18v18H1518z"/>
	<path id="rect_864_468" d="M1518,409v-18h18v18H1518z"/>
	<path id="rect_846_468" d="M1500,409v-18h18v18H1500z"/>
	<path id="rect_828_468" d="M1482,409v-18h18v18H1482z"/>
	<path id="rect_774_486" d="M1428,427v-18h18v18H1428z"/>
	<path id="rect_810_468" d="M1464,409v-18h18v18H1464z"/>
	<path id="rect_792_468" d="M1446,409v-18h18v18H1446z"/>
	<path id="rect_774_468" d="M1428,409v-18h18v18H1428z"/>
	<path id="rect_756_468" d="M1410,409v-18h18v18H1410z"/>
	<path id="rect_738_468" d="M1392,409v-18h18v18H1392z"/>
	<path id="rect_738_450" d="M1392,391v-18h18v18H1392z"/>
	<path id="rect_738_432" d="M1392,373v-18h18v18H1392z"/>
	<path id="rect_756_432" d="M1410,373v-18h18v18H1410z"/>
	<path id="rect_774_432" d="M1428,373v-18h18v18H1428z"/>
	<path id="rect_774_450" d="M1428,391v-18h18v18H1428z"/>
	<path id="rect_774_504" d="M1428,445v-18h18v18H1428z"/>
	<path id="rect_774_522" d="M1428,463v-18h18v18H1428z"/>
	<path id="rect_774_540" d="M1428,481v-18h18v18H1428z"/>
	<path id="rect_792_540" d="M1446,481v-18h18v18H1446z"/>
	<path id="rect_810_540" d="M1464,481v-18h18v18H1464z"/>
	<path id="rect_828_540" d="M1482,481v-18h18v18H1482z"/>
	<path id="rect_846_540" d="M1500,481v-18h18v18H1500z"/>
	<path id="rect_864_540" d="M1518,481v-18h18v18H1518z"/>
	<path id="rect_864_504" d="M1518,445v-18h18v18H1518z"/>
</g>
</svg>
